<?xml version="1.0" encoding="utf-8"?>
<!-- Generator: Adobe Illustrator 25.4.1, SVG Export Plug-In . SVG Version: 6.00 Build 0)  -->
<svg version="1.1" id="Ebene_1" xmlns="http://www.w3.org/2000/svg" xmlns:xlink="http://www.w3.org/1999/xlink" x="0px" y="0px"
	 viewBox="0 0 128.54 68.03" style="enable-background:new 0 0 128.54 68.03;" xml:space="preserve">
<style type="text/css">
	.st0{fill:#FFFFFF;}
	.st1{fill:none;stroke:#000000;stroke-width:3;stroke-linecap:round;stroke-miterlimit:1;}
	.st2{fill:none;stroke:#FFFFFF;stroke-width:2.5;stroke-linecap:round;stroke-miterlimit:1;}
	.st3{font-family:'Maku-Bold';}
	.st4{font-size:14px;}
	.st5{opacity:5.000000e-03;}
	.st6{fill:none;stroke:#FFFFFF;stroke-width:4.3;stroke-linecap:round;stroke-miterlimit:10;}
	.st7{fill:none;stroke:#000000;stroke-width:2;stroke-linecap:round;stroke-miterlimit:10;}
</style>
<g>
	<rect x="0.75" y="0.76" class="st0" width="41.02" height="41.02"/>
	<path d="M41.02,1.51v39.52H1.5V1.51H41.02 M42.52,0.01H0v42.52h42.52V0.01L42.52,0.01z"/>
</g>
<g>
	<path d="M11.23,9.9c0.36,0,0.69,0.14,0.94,0.39L22.2,20.32c0.52,0.52,0.52,1.37,0,1.89c-0.25,0.25-0.59,0.39-0.94,0.39
		c-0.36,0-0.69-0.14-0.94-0.39L10.29,12.18c-0.52-0.52-0.52-1.37,0-1.89C10.54,10.04,10.88,9.9,11.23,9.9 M11.23,8.4
		c-0.73,0-1.45,0.28-2,0.83c-1.11,1.11-1.11,2.9,0,4.01l10.02,10.02c0.55,0.55,1.28,0.83,2,0.83s1.45-0.28,2-0.83
		c1.11-1.11,1.11-2.9,0-4.01L13.24,9.24C12.68,8.68,11.96,8.4,11.23,8.4L11.23,8.4z"/>
</g>
<g>
	<path d="M31.29,9.9c0.36,0,0.69,0.14,0.94,0.39c0.52,0.52,0.52,1.37,0,1.89L22.21,22.21c-0.25,0.25-0.59,0.39-0.94,0.39
		c-0.36,0-0.69-0.14-0.94-0.39c-0.25-0.25-0.39-0.59-0.39-0.94c0-0.36,0.14-0.69,0.39-0.94L30.34,10.3
		C30.6,10.04,30.93,9.9,31.29,9.9 M31.29,8.4c-0.73,0-1.45,0.28-2,0.83L19.26,19.26c-1.11,1.11-1.11,2.9,0,4.01
		c0.55,0.55,1.28,0.83,2,0.83c0.73,0,1.45-0.28,2-0.83l10.02-10.02c1.11-1.11,1.11-2.9,0-4.01h0C32.74,8.68,32.01,8.4,31.29,8.4
		L31.29,8.4z"/>
</g>
<g>
	<path d="M21.26,19.93c0.74,0,1.33,0.6,1.33,1.33v14.17c0,0.74-0.6,1.33-1.33,1.33c-0.74,0-1.33-0.6-1.33-1.33V21.27
		C19.93,20.53,20.52,19.93,21.26,19.93 M21.26,18.43c-1.57,0-2.83,1.27-2.83,2.83v14.17c0,1.57,1.27,2.83,2.83,2.83
		s2.83-1.27,2.83-2.83V21.27C24.09,19.7,22.83,18.43,21.26,18.43L21.26,18.43z"/>
</g>
<path class="st1" d="M21.26,35.44"/>
<path class="st1" d="M21.26,21.26"/>
<path class="st2" d="M33.68,23.42"/>
<path class="st2" d="M21.4,16.33"/>
<g>
	<path d="M21.26,19.18c1.15,0,2.08,0.94,2.08,2.08c0,1.15-0.94,2.08-2.08,2.08c-1.15,0-2.08-0.94-2.08-2.08
		C19.18,20.12,20.11,19.18,21.26,19.18 M21.26,18.43c-1.57,0-2.83,1.27-2.83,2.83s1.27,2.83,2.83,2.83s2.83-1.27,2.83-2.83
		S22.83,18.43,21.26,18.43L21.26,18.43z"/>
</g>
<g>
	<rect x="42.52" y="0.01" width="86.02" height="42.52"/>
</g>
<text transform="matrix(1 0 0 1 6.9064 59.0592)" class="st3 st4">Yet another document store</text>
<g>
	<path class="st0" d="M56.69,13.06c0.62,0,1.13,0.51,1.13,1.13s-0.51,1.13-1.13,1.13s-1.13-0.51-1.13-1.13S56.07,13.06,56.69,13.06
		 M56.69,12.06c-1.17,0-2.13,0.95-2.13,2.13s0.95,2.13,2.13,2.13s2.13-0.95,2.13-2.13S57.87,12.06,56.69,12.06L56.69,12.06z"/>
</g>
<g>
	<path class="st0" d="M49.61,27.23c0.62,0,1.13,0.51,1.13,1.13s-0.51,1.13-1.13,1.13s-1.13-0.51-1.13-1.13S48.99,27.23,49.61,27.23
		 M49.61,26.23c-1.17,0-2.13,0.95-2.13,2.13s0.95,2.13,2.13,2.13s2.13-0.95,2.13-2.13S50.78,26.23,49.61,26.23L49.61,26.23z"/>
</g>
<g>
	<path class="st0" d="M63.78,27.23c0.62,0,1.13,0.51,1.13,1.13s-0.51,1.13-1.13,1.13c-0.62,0-1.13-0.51-1.13-1.13
		S63.16,27.23,63.78,27.23 M63.78,26.23c-1.17,0-2.13,0.95-2.13,2.13s0.95,2.13,2.13,2.13s2.13-0.95,2.13-2.13
		S64.95,26.23,63.78,26.23L63.78,26.23z"/>
</g>
<g class="st5">
	<path class="st0" d="M69.37,8.59v25.35H44.02V8.59H69.37 M70.87,7.09H42.52v28.35h28.35V7.09L70.87,7.09z"/>
</g>
<g class="st5">
	<path class="st0" d="M97.71,8.59v25.35H72.37V8.59H97.71 M99.21,7.09H70.87v28.35h28.35V7.09L99.21,7.09z"/>
</g>
<g class="st5">
	<path class="st0" d="M126.06,8.59v25.35h-25.35V8.59H126.06 M127.56,7.09H99.21v28.35h28.35V7.09L127.56,7.09z"/>
</g>
<g>
	<path class="st0" d="M56.7,13.05c0.43,0,0.82,0.24,1.01,0.62l7.07,14.18c0.13,0.27,0.16,0.57,0.06,0.86
		c-0.1,0.29-0.3,0.52-0.57,0.65c-0.16,0.08-0.33,0.12-0.5,0.12c-0.43,0-0.82-0.24-1.01-0.62l-7.07-14.18
		c-0.13-0.27-0.16-0.57-0.06-0.86c0.1-0.29,0.3-0.52,0.57-0.65C56.36,13.09,56.53,13.05,56.7,13.05 M56.7,12.05
		c-0.32,0-0.64,0.07-0.95,0.22c-1.05,0.52-1.48,1.8-0.95,2.85l7.07,14.18c0.37,0.75,1.12,1.18,1.9,1.18c0.32,0,0.64-0.07,0.95-0.22
		h0c1.05-0.52,1.48-1.8,0.95-2.85L58.6,13.23C58.23,12.48,57.48,12.05,56.7,12.05L56.7,12.05z"/>
</g>
<g>
	<path class="st0" d="M56.69,13.05L56.69,13.05c0.17,0,0.34,0.04,0.5,0.12c0.27,0.13,0.47,0.37,0.57,0.65
		c0.1,0.29,0.07,0.59-0.06,0.86l-7.07,14.18c-0.19,0.38-0.58,0.62-1.01,0.62c-0.17,0-0.34-0.04-0.5-0.12
		c-0.27-0.13-0.47-0.37-0.57-0.65c-0.1-0.29-0.07-0.59,0.06-0.86l7.07-14.18C55.87,13.29,56.26,13.05,56.69,13.05 M56.69,12.05
		c-0.78,0-1.53,0.43-1.9,1.18l-7.07,14.18c-0.52,1.05-0.1,2.33,0.95,2.85c0.3,0.15,0.63,0.22,0.95,0.22c0.78,0,1.53-0.43,1.9-1.18
		l7.07-14.18c0.52-1.05,0.1-2.33-0.95-2.85C57.33,12.12,57.01,12.05,56.69,12.05L56.69,12.05z"/>
</g>
<path class="st6" d="M77.95,14.18c14.17,0,14.17,0,14.17,7.09s0,7.09-14.17,7.09"/>
<path class="st7" d="M77.96,14.18c14.17,0,14.17,0,14.17,7.09s0,7.09-14.17,7.09"/>
<g>
	<path class="st0" d="M77.95,13.06c0.62,0,1.13,0.51,1.13,1.13v14.17c0,0.62-0.51,1.13-1.13,1.13c-0.62,0-1.13-0.51-1.13-1.13
		l0-14.17C76.83,13.56,77.33,13.06,77.95,13.06 M77.95,12.06L77.95,12.06c-1.17,0-2.13,0.95-2.13,2.13l0,14.17
		c0,1.17,0.95,2.13,2.13,2.13h0c1.17,0,2.13-0.95,2.13-2.13V14.18C80.08,13.01,79.13,12.06,77.95,12.06L77.95,12.06z"/>
</g>
<g>
	<path class="st0" d="M77.95,13.06c0.62,0,1.13,0.51,1.13,1.13s-0.51,1.13-1.13,1.13s-1.13-0.51-1.13-1.13S77.33,13.06,77.95,13.06
		 M77.95,12.06c-1.17,0-2.13,0.95-2.13,2.13s0.95,2.13,2.13,2.13s2.13-0.95,2.13-2.13S79.13,12.06,77.95,12.06L77.95,12.06z"/>
</g>
<g>
	<path class="st0" d="M77.95,27.23c0.62,0,1.13,0.51,1.13,1.13s-0.51,1.13-1.13,1.13s-1.13-0.51-1.13-1.13S77.33,27.23,77.95,27.23
		 M77.95,26.23c-1.17,0-2.13,0.95-2.13,2.13s0.95,2.13,2.13,2.13s2.13-0.95,2.13-2.13S79.13,26.23,77.95,26.23L77.95,26.23z"/>
</g>
<path d="M-26.2,54.06"/>
<path class="st6" d="M106.3,28.35c14.17,0,14.17,0.01,14.17-3.54s-14.17-3.55-14.17-7.05c0-3.59,0-3.59,14.17-3.59"/>
<path class="st7" d="M106.3,28.35c14.17,0,14.17,0.01,14.17-3.54s-14.17-3.55-14.17-7.05c0-3.59,0-3.59,14.17-3.59"/>
<g>
	<path class="st0" d="M120.47,13.06c0.62,0,1.13,0.51,1.13,1.13s-0.51,1.13-1.13,1.13s-1.13-0.51-1.13-1.13
		S119.85,13.06,120.47,13.06 M120.47,12.06c-1.17,0-2.13,0.95-2.13,2.13s0.95,2.13,2.13,2.13s2.13-0.95,2.13-2.13
		S121.65,12.06,120.47,12.06L120.47,12.06z"/>
</g>
<g>
	<path class="st0" d="M106.3,27.23c0.62,0,1.13,0.51,1.13,1.13s-0.51,1.13-1.13,1.13s-1.13-0.51-1.13-1.13S105.68,27.23,106.3,27.23
		 M106.3,26.23c-1.17,0-2.13,0.95-2.13,2.13s0.95,2.13,2.13,2.13s2.13-0.95,2.13-2.13S107.47,26.23,106.3,26.23L106.3,26.23z"/>
</g>
<g>
	<path d="M31.29,9.9c0.74,0,1.33,0.6,1.33,1.33s-0.6,1.33-1.33,1.33s-1.33-0.6-1.33-1.33S30.56,9.9,31.29,9.9 M31.29,8.4
		c-1.57,0-2.83,1.27-2.83,2.83s1.27,2.83,2.83,2.83s2.83-1.27,2.83-2.83S32.86,8.4,31.29,8.4L31.29,8.4z"/>
</g>
<g>
	<path d="M11.23,9.9c0.74,0,1.33,0.6,1.33,1.33s-0.6,1.33-1.33,1.33s-1.33-0.6-1.33-1.33S10.49,9.9,11.23,9.9 M11.23,8.4
		c-1.57,0-2.83,1.27-2.83,2.83s1.27,2.83,2.83,2.83s2.83-1.27,2.83-2.83S12.79,8.4,11.23,8.4L11.23,8.4z"/>
</g>
<g>
	<path d="M21.26,34.11c0.74,0,1.33,0.6,1.33,1.33s-0.6,1.33-1.33,1.33c-0.74,0-1.33-0.6-1.33-1.33S20.52,34.11,21.26,34.11
		 M21.26,32.61c-1.57,0-2.83,1.27-2.83,2.83s1.27,2.83,2.83,2.83s2.83-1.27,2.83-2.83S22.83,32.61,21.26,32.61L21.26,32.61z"/>
</g>
</svg>
